<svg width="100" height="100" viewBox="0 0 100 100" xmlns="http://www.w3.org/2000/svg">
  <defs>
    <linearGradient id="ashokaGradient" x1="0%" y1="0%" x2="100%" y2="0%">
      <stop offset="0%" style="stop-color:#FF9933;" />
      <stop offset="50%" style="stop-color:#FFFFFF;" />
      <stop offset="100%" style="stop-color:#138808;" />
    </linearGradient>
  </defs>
  <path d="M50 2 C 76.5 2 98 23.5 98 50 C 98 76.5 76.5 98 50 98 C 23.5 98 2 76.5 2 50 C 2 23.5 23.5 2 50 2 Z" fill="url(#ashokaGradient)" stroke="#000080" stroke-width="1"/>
  <circle cx="50" cy="50" r="15" fill="#000080"/>
  <circle cx="50" cy="50" r="13" fill="white"/>
  <path d="M50,37 L50,63 M37,50 L63,50 M40,40 L60,60 M40,60 L60,40" stroke="#000080" stroke-width="2"/>
  <path d="M50 50 L 50 35 M 50 50 L 62.12 57.5 M 50 50 L 62.12 42.5 M 50 50 L 50 65 M 50 50 L 37.88 57.5 M 50 50 L 37.88 42.5" stroke="#000080" stroke-width="1" fill="none" transform="rotate(7.5 50 50)"/>
  <path d="M50,50 L58.66,32.5 M50,50 L64.15,45.36 M50,50 L64.15,54.64 M50,50 L58.66,67.5 M50,50 L41.34,67.5 M50,50 L35.85,54.64 M50,50 L35.85,45.36 M50,50 L41.34,32.5" stroke="#000080" stroke-width="0.5" fill="none" />
</svg>